<svg xmlns="http://www.w3.org/2000/svg" viewBox="0 0 97 68">
    <defs/>
    <path fill="currentColor" fill-rule="nonzero" d="M9.952 48.184c5.0773333 0 9.7253333-1.9786667 13.944-5.936 2.8746667-2.8 5.6746667-6.1973333 8.4-10.192.672.0373333 1.344.056 2.016.056 3.136 0 6.6453333-.4666667 10.528-1.4 2.24-.56 4.508-1.4746667 6.804-2.744 2.296-1.2693333 4.284-2.7813333 5.964-4.536 2.912-2.9866667 4.368-5.7866667 4.368-8.4 0-3.3226667-1.9786667-6.16-5.936-8.512-1.9413333-1.15733333-4.1066667-2.05333333-6.496-2.688.672-.672 1.372-1.25066667 2.1-1.736s1.1573333-.84933333 1.288-1.092c.1306667-.24266667.084-.364-.14-.364-.0373333-.03733333-.1213333-.056-.252-.056s-.7.18666667-1.708.56-2.184 1.08266667-3.528 2.128c-2.8746667-.59733333-6.0013333-.896-9.38-.896-3.3786667 0-7.0186667.28933333-10.92.868S19.3786667 4.82133333 15.832 6.24c-2.0906667.85866667-3.9386667 1.82933333-5.544 2.912-1.60533333 1.0826667-2.98666667 2.492-4.144 4.228-1.15733333 1.736-1.736 3.6866667-1.736 5.852 0 2.352.80266667 4.2746667 2.408 5.768 1.60533333 1.4933333 3.67733333 2.24 6.216 2.24 2.24 0 4.284-.7 6.132-2.1 1.848-1.4 2.7906667-3.3133333 2.828-5.74 0-.2613333-.056-.448-.168-.56-.112-.112-.2333333-.1213333-.364-.028-.1306667.0933333-.2146667.2706667-.252.532-.672 1.904-1.8013333 3.5093333-3.388 4.816-1.5866667 1.3066667-3.2293333 1.96-4.928 1.96s-3.08933333-.6533333-4.172-1.96c-1.008-1.232-1.512-2.5573333-1.512-3.976 0-2.3146667.93333333-4.536 2.8-6.664 1.4186667-1.68 3.164-3.0706667 5.236-4.172 2.072-1.10133333 4.116-1.99733333 6.132-2.688 2.016-.69066667 4.3866667-1.288 7.112-1.792s5.6186667-.756 8.68-.756c3.0613333 0 5.936.18666667 8.624.56-.5226667.52266667-1.176 1.232-1.96 2.128l-1.008 1.008c-2.128 2.3893333-4.2186667 5.2546667-6.272 8.596-2.0533333 3.3413333-3.7706667 6.3746667-5.152 9.1-3.584 7.28-6.8133333 12.32-9.688 15.12-4.032 3.8826667-8.1386667 5.824-12.32 5.824-2.8 0-4.49866667-1.008-5.096-3.024-.14933333-.4106667-.224-.8213333-.224-1.232 0-1.0453333.45733333-2.0253333 1.372-2.94.91466667-.9146667 1.97866667-1.372 3.192-1.372 1.21333333 0 2.2306667.1493333 3.052.448s1.3066667.3733333 1.456.224c.1866667-.2613333-.0373333-.504-.672-.728-1.7173333-.56-3.36-.84-4.928-.84-2.42666667 0-4.312.7653333-5.656 2.296C1.02933333 40.2506667.6 41.156.6 41.996c0 .84.13066667 1.5773333.392 2.212 1.12 2.6506667 4.10666667 3.976 8.96 3.976zM33.864 30.88h-.784c1.5306667-2.352 3.9573333-6.496 7.28-12.432s6.0293333-10.36 8.12-13.272c6.608 1.568 9.912 4.536 9.912 8.904 0 3.8453333-2.3893333 7.5786667-7.168 11.2-2.464 1.8293333-5.292 3.22-8.484 4.172-3.192.952-6.1506667 1.428-8.876 1.428zm22.904 36.064c1.3813333 0 3.0613333-.2613333 5.04-.784 3.584-.9333333 7.2706667-2.66 11.06-5.18 3.7893333-2.52 6.8226667-5.4226667 9.1-8.708h1.456c4.8533333 0 8.568.336 11.144 1.008 1.0826667.2613333 1.624.1866667 1.624-.224 0-.336-.392-.5973333-1.176-.784-3.696-.9333333-7.784-1.4186667-12.264-1.456 2.24-3.696 3.976-6.972 5.208-9.828 1.232-2.856 2.0346667-5.74 2.408-8.652.0746667-.448.0373333-.8586667-.112-1.232-.2986667-.9706667-.8773333-1.456-1.736-1.456-1.7173333 0-3.3226667 1.736-4.816 5.208-.56 1.3066667-1.904 2.6693333-4.032 4.088-2.128 1.4186667-4.536 2.4826667-7.224 3.192-1.344.336-2.6786667.504-4.004.504-1.3253333 0-2.6226667-.168-3.892-.504-4.3306667-1.4186667-6.496-5.2826667-6.496-11.592 0-3.0613333.896-6.5333333 2.688-10.416 3.8453333 2.576 8.792 3.864 14.84 3.864 2.8746667 0 5.6933333-.392 8.456-1.176 5.2266667-1.456 8.8853333-3.9946667 10.976-7.616.9333333-1.68 1.4-3.2573333 1.4-4.732 0-1.47466667-.336-2.84666667-1.008-4.116-1.68-3.21066667-4.928-5.18933333-9.744-5.936C84.656.26666667 83.648.192 82.64.192c-3.6586667 0-7.448 1.008-11.368 3.024-5.0026667 2.53866667-8.96 6.19733333-11.872 10.976-.5973333.9706667-1.008 1.6986667-1.232 2.184-1.9413333-2.2773333-2.912-4.7226667-2.912-7.336 0-2.27733333.84-4.536 2.52-6.776.3733333-.52266667.4573333-.84933333.252-.98-.2053333-.13066667-.532.04666667-.98.532-2.3146667 2.576-3.472 5.292-3.472 8.148s1.232 5.5533333 3.696 8.092c-1.904 4.144-2.856 8.0266667-2.856 11.648s.8026667 6.7386667 2.408 9.352c1.4933333 2.464 3.4346667 4.1066667 5.824 4.928 1.3066667.4853333 2.828.728 4.564.728 1.736 0 3.948-.4293333 6.636-1.288 1.68-.5226667 3.6493333-1.4466667 5.908-2.772 2.2586667-1.3253333 4.284-2.8466667 6.076-4.564l-.224.952c-1.008 4.5173333-2.8933333 9.1093333-5.656 13.776-4.48.0746667-8.5213333.3733333-12.124.896-3.6026667.5226667-7.028 1.512-10.276 2.968-4.2933333 1.904-6.944 3.976-7.952 6.216-.2613333.56-.392 1.0826667-.392 1.568 0 1.6426667 1.3626667 2.968 4.088 3.976.9333333.336 2.0906667.504 3.472.504zm16.296-44.576c-1.3813333 0-3.22-.28-5.516-.84-2.296-.56-4.3213333-1.512-6.076-2.856 2.912-5.8613333 7-10.36 12.264-13.496 3.584-2.16533333 6.9813333-3.248 10.192-3.248 1.4186667 0 2.8373333.224 4.256.672 3.8453333 1.19466667 5.768 3.50933333 5.768 6.944 0 2.1653333-1.008 4.3306667-3.024 6.496-4.032 4.2186667-9.9866667 6.328-17.864 6.328zm-16.352 42.84c-.7093333 0-1.3626667-.0746667-1.96-.224-1.792-.3733333-2.688-1.0826667-2.688-2.128 0-1.3813333 1.512-3.0426667 4.536-4.984 3.8453333-2.464 7.896-4.0133333 12.152-4.648 2.9493333-.4853333 6.384-.784 10.304-.896-3.024 4.3306667-7.112 7.672-12.264 10.024-4.0693333 1.904-7.4293333 2.856-10.08 2.856z"/>
</svg>
